<?xml version="1.0" standalone="no"?>
<!DOCTYPE svg PUBLIC "-//W3C//DTD SVG 20010904//EN"
 "http://www.w3.org/TR/2001/REC-SVG-20010904/DTD/svg10.dtd">
<svg version="1.0" xmlns="http://www.w3.org/2000/svg"
 width="3902.000000pt" height="3780.000000pt" viewBox="0 0 3902.000000 3780.000000"
 preserveAspectRatio="xMidYMid meet">

<g transform="translate(0.000000,3780.000000) scale(0.100000,-0.100000)"
fill="#000000" stroke="none">
<path d="M19315 37793 c-142 -6 -374 -35 -517 -64 -551 -112 -990 -351 -1409
-769 -204 -203 -318 -340 -675 -811 -390 -514 -545 -698 -790 -941 -304 -301
-577 -504 -939 -701 -193 -105 -379 -186 -730 -317 -1236 -462 -2389 -998
-3455 -1608 -2306 -1318 -4290 -3018 -5937 -5089 -175 -220 -387 -498 -588
-773 -188 -257 -300 -381 -465 -513 -341 -273 -631 -397 -1540 -662 -429 -125
-671 -215 -930 -346 -425 -214 -733 -485 -992 -874 -93 -140 -261 -473 -283
-560 -53 -218 -68 -778 -27 -1040 57 -365 168 -655 369 -964 84 -129 147 -212
393 -516 261 -324 320 -401 417 -545 228 -341 376 -676 484 -1099 34 -131 42
-188 59 -390 309 -3651 1031 -6691 2237 -9421 556 -1258 1206 -2442 2049
-3736 226 -346 324 -557 418 -899 99 -359 137 -655 191 -1460 58 -863 123
-1237 287 -1650 167 -419 492 -844 803 -1050 728 -481 1448 -624 2245 -443
237 53 497 137 905 293 428 163 660 237 871 279 244 48 434 57 624 31 58 -8
164 -21 236 -30 158 -17 295 -44 469 -91 127 -35 260 -79 974 -323 816 -280
1446 -435 2213 -545 828 -120 1593 -164 2628 -152 322 4 668 5 770 4 443 -7
1395 -1 1610 10 1079 56 1968 188 2815 417 310 84 611 180 1095 348 708 246
929 307 1195 332 39 3 115 14 170 23 140 23 433 23 578 -1 259 -44 476 -110
1002 -307 388 -145 597 -215 798 -266 712 -179 1327 -115 1966 206 272 136
441 250 595 399 389 380 635 855 750 1450 56 287 81 514 121 1121 49 742 91
1052 189 1411 87 318 196 558 380 838 883 1345 1598 2658 2166 3977 932 2163
1550 4456 1925 7144 90 647 199 1645 240 2210 12 154 97 471 190 710 162 414
317 659 750 1190 308 379 422 540 539 762 237 451 311 978 230 1633 -19 151
-44 225 -144 420 -277 544 -664 922 -1215 1186 -246 118 -476 199 -970 344
-547 160 -743 229 -990 350 -295 145 -541 332 -730 555 -39 47 -138 177 -220
288 -469 646 -980 1269 -1549 1891 -366 400 -1055 1074 -1506 1472 -1951 1722
-4210 3054 -6871 4053 -551 206 -766 312 -1099 537 -437 296 -765 626 -1233
1239 -539 706 -574 750 -816 991 -184 184 -296 278 -461 388 -502 337 -1116
486 -1865 454z m581 -608 c613 -72 1049 -313 1505 -835 100 -113 222 -269 474
-600 368 -486 504 -648 755 -904 391 -398 785 -688 1261 -927 188 -94 338
-156 719 -299 2674 -1004 4936 -2363 6892 -4141 1045 -950 1912 -1927 2848
-3210 131 -179 400 -455 562 -575 368 -271 703 -424 1358 -620 576 -172 654
-197 785 -244 644 -236 1007 -543 1270 -1075 65 -131 65 -132 79 -266 53 -497
6 -854 -153 -1182 -97 -200 -192 -334 -517 -733 -220 -269 -325 -409 -437
-579 -201 -306 -343 -601 -456 -947 -110 -339 -136 -465 -166 -821 -390 -4551
-1414 -8092 -3291 -11384 -270 -474 -554 -936 -902 -1472 -250 -384 -361 -619
-471 -993 -120 -412 -171 -769 -226 -1598 -30 -447 -48 -652 -76 -840 -80
-539 -245 -929 -526 -1245 -108 -122 -159 -164 -293 -250 -438 -277 -882 -402
-1332 -374 -331 21 -573 86 -1238 334 -645 241 -902 311 -1260 346 -135 13
-413 7 -515 -11 -33 -5 -118 -17 -190 -25 -374 -44 -605 -105 -1265 -335 -840
-293 -1235 -407 -1825 -525 -953 -190 -1921 -267 -3155 -250 -305 4 -649 6
-765 4 -426 -8 -1357 -2 -1580 10 -1345 71 -2308 245 -3400 615 -154 52 -444
150 -645 218 -481 164 -690 218 -970 253 -69 8 -177 23 -240 32 -160 24 -510
24 -675 0 -304 -45 -554 -119 -1155 -342 -412 -153 -575 -207 -765 -254 -659
-162 -1220 -59 -1825 334 -186 121 -402 380 -529 632 -106 213 -182 458 -230
748 -39 240 -52 370 -91 940 -52 757 -89 1050 -181 1420 -107 428 -245 746
-485 1110 -1346 2051 -2278 3993 -2965 6175 -624 1982 -1050 4258 -1254 6700
-24 288 -30 331 -70 497 -118 488 -290 891 -551 1290 -115 176 -218 314 -454
603 -314 386 -400 507 -495 699 -138 277 -195 570 -181 941 3 96 13 225 20
286 14 102 20 122 71 225 222 445 496 723 918 935 230 116 402 178 902 325
828 244 1096 354 1470 604 267 179 481 383 683 655 514 690 663 882 983 1265
401 479 727 835 1203 1311 950 950 1893 1724 3006 2469 1399 937 2869 1681
4615 2337 176 66 380 147 455 180 555 245 1057 596 1490 1044 226 235 398 442
755 914 396 522 610 765 830 943 366 295 757 440 1287 477 154 11 444 3 604
-15z"/>
<path d="M19195 36084 c-499 -67 -844 -268 -1182 -689 -57 -71 -189 -256 -293
-410 -328 -488 -436 -633 -643 -863 -305 -339 -714 -634 -1167 -842 -144 -67
-223 -98 -671 -269 -3527 -1343 -7353 -4135 -9722 -7093 -91 -114 -258 -331
-372 -483 -114 -152 -240 -314 -280 -358 -257 -289 -608 -479 -1044 -567 -134
-27 -242 -43 -696 -101 -587 -75 -898 -207 -1177 -498 -109 -113 -201 -246
-282 -406 -70 -138 -74 -150 -84 -318 -25 -382 47 -680 239 -990 56 -90 163
-234 343 -462 431 -545 635 -948 792 -1565 40 -157 47 -203 69 -450 27 -296
32 -354 71 -705 448 -4100 1757 -8054 3807 -11495 153 -257 415 -677 572 -915
159 -243 180 -280 245 -426 99 -221 180 -497 215 -736 32 -219 37 -325 45
-953 9 -675 13 -746 56 -956 98 -484 369 -910 732 -1152 190 -126 354 -199
562 -249 147 -35 434 -43 612 -18 260 36 510 113 1054 325 513 200 697 261
944 310 247 49 471 59 665 29 33 -5 121 -16 195 -25 317 -36 502 -91 1437
-423 1257 -446 2190 -633 3643 -732 231 -16 2682 -23 3030 -9 1185 48 2188
208 3175 506 256 78 474 151 939 316 660 233 883 299 1136 332 69 9 175 24
235 33 145 22 412 21 560 -1 273 -42 533 -121 1046 -322 531 -207 721 -270
978 -321 125 -25 155 -28 366 -28 185 0 246 4 315 18 312 67 608 224 816 431
327 326 501 711 561 1239 13 112 16 236 15 582 -2 792 26 1106 133 1461 88
289 165 449 380 779 440 679 826 1330 1194 2020 144 269 487 955 626 1250
1442 3072 2319 6368 2625 9864 16 184 28 264 56 379 79 324 183 611 319 877
134 265 254 440 600 880 202 257 302 417 370 593 84 219 117 463 96 725 l-12
152 -63 130 c-244 497 -594 760 -1165 875 -80 16 -290 48 -466 70 -380 48
-505 69 -683 115 -342 90 -581 224 -823 465 -112 111 -172 183 -341 410 -575
773 -1098 1372 -1872 2145 -385 385 -625 612 -974 923 -2004 1785 -4344 3293
-6617 4264 -274 117 -504 209 -800 320 -308 115 -443 172 -625 263 -362 181
-635 374 -909 640 -251 245 -391 422 -740 939 -242 358 -328 475 -448 608
-305 337 -659 518 -1115 567 -132 15 -480 12 -603 -5z m505 -224 c460 -35 789
-201 1078 -543 107 -127 175 -221 400 -554 220 -327 308 -449 433 -604 349
-432 747 -756 1245 -1011 211 -109 343 -165 646 -279 1035 -387 2057 -869
3068 -1447 2870 -1639 5548 -3956 7205 -6232 279 -384 541 -607 891 -759 269
-116 495 -167 1049 -236 472 -58 693 -111 888 -212 240 -124 427 -325 563
-605 l46 -97 5 -163 c14 -428 -82 -668 -457 -1138 -245 -306 -381 -498 -494
-694 -186 -322 -324 -676 -425 -1087 -45 -186 -52 -226 -71 -459 -153 -1852
-515 -3801 -1046 -5632 -768 -2654 -1961 -5257 -3414 -7448 -257 -388 -398
-787 -466 -1320 -12 -96 -18 -279 -24 -785 -8 -681 -13 -758 -55 -971 -61
-305 -191 -566 -398 -805 -203 -233 -543 -404 -874 -440 -317 -34 -643 38
-1266 282 -723 283 -982 361 -1326 400 -130 14 -438 7 -586 -15 -60 -9 -159
-23 -220 -32 -257 -36 -487 -104 -1150 -339 -809 -286 -1174 -397 -1720 -519
-986 -222 -2176 -328 -3345 -298 -221 6 -495 6 -695 0 -1079 -29 -2212 60
-3140 247 -619 125 -1077 258 -1913 554 -556 197 -693 242 -907 296 -164 42
-223 52 -515 92 -203 27 -552 25 -718 -5 -289 -51 -562 -137 -1072 -337 -508
-198 -743 -273 -971 -309 -426 -68 -780 18 -1113 268 -244 184 -449 502 -540
837 -67 247 -78 396 -81 1064 -1 336 -7 619 -14 690 -44 453 -132 787 -302
1140 -34 72 -139 246 -261 435 -736 1135 -1366 2287 -1930 3528 -1334 2938
-2164 6143 -2448 9447 -17 199 -28 268 -61 405 -139 579 -346 1035 -667 1475
-36 50 -142 187 -236 305 -255 324 -354 482 -418 670 -55 164 -79 398 -60 584
10 86 17 111 56 190 153 306 364 513 645 631 183 77 355 113 831 174 173 22
376 51 450 65 639 119 1046 371 1427 885 232 312 300 400 488 636 466 581 904
1064 1526 1680 583 577 1092 1035 1719 1547 2010 1640 4275 2984 6375 3783
110 42 272 103 359 137 703 268 1247 648 1693 1185 138 166 234 299 473 653
227 337 325 471 436 595 340 382 792 541 1404 495z"/>
<path d="M19576 30398 c-4 -55 -27 -1345 -26 -1535 l0 -73 150 0 150 0 0 198
c0 311 13 1258 17 1246 2 -6 66 -334 142 -730 l138 -719 95 -3 96 -3 30 128
c16 70 90 392 163 715 124 541 134 582 137 520 1 -37 -4 -357 -12 -711 -8
-355 -13 -648 -10 -653 3 -4 70 -8 150 -8 l144 0 0 68 c0 37 7 409 15 826 7
418 12 763 9 768 -3 4 -108 8 -234 8 l-229 0 -9 -32 c-5 -18 -60 -257 -123
-531 -74 -325 -116 -490 -120 -474 -3 13 -51 253 -105 534 l-98 510 -125 7
c-70 3 -174 6 -233 6 l-106 0 -6 -62z"/>
<path d="M18014 30415 c-133 -29 -249 -117 -300 -229 -47 -103 -49 -269 -4
-388 40 -107 114 -171 385 -338 211 -129 252 -162 281 -224 27 -59 32 -138 10
-189 -29 -70 -116 -113 -208 -105 -99 10 -133 64 -151 244 l-11 116 -61 -6
c-33 -3 -102 -9 -152 -12 l-93 -7 0 -69 c0 -168 58 -326 151 -413 96 -88 219
-120 405 -103 232 20 379 130 430 321 30 111 11 296 -41 400 -50 100 -130 167
-360 301 -82 48 -167 101 -190 116 -96 67 -141 142 -130 216 12 81 70 126 164
127 118 1 171 -62 187 -218 l7 -64 71 6 c39 3 105 8 146 12 l75 6 -3 60 c-9
181 -96 341 -220 404 -98 50 -257 65 -388 36z"/>
<path d="M21424 30356 c-5 -14 -140 -1126 -149 -1226 -4 -42 -2 -110 4 -154
32 -230 162 -331 473 -368 177 -21 318 16 418 109 70 64 102 126 125 238 16
76 166 1277 161 1283 -2 1 -69 10 -151 20 -101 13 -148 15 -151 8 -2 -6 -35
-269 -74 -585 -39 -316 -77 -603 -85 -639 -31 -131 -83 -182 -187 -182 -107 0
-188 46 -208 118 -19 70 -10 190 61 765 39 318 69 580 67 582 -2 2 -70 13
-152 23 -103 13 -149 15 -152 8z"/>
<path d="M16753 30211 l-201 -36 -6 -75 c-13 -157 -78 -1622 -73 -1627 3 -3
71 7 151 21 79 14 146 26 149 26 2 0 7 95 11 212 3 116 8 213 9 214 5 5 341
64 344 60 2 -2 37 -90 78 -196 41 -106 76 -194 77 -195 4 -4 319 52 324 57 3
4 -638 1537 -654 1562 -5 9 -57 3 -209 -23z m278 -962 c-29 -11 -231 -42 -237
-37 -3 3 -2 159 2 347 l7 342 123 -323 c107 -281 120 -324 105 -329z"/>
<path d="M22692 29338 c-95 -446 -171 -812 -169 -814 8 -9 283 -61 288 -56 4
4 39 162 79 352 40 190 74 347 76 349 6 7 139 -22 207 -45 83 -28 120 -54 141
-98 24 -51 20 -117 -20 -324 -19 -103 -36 -220 -37 -261 l-2 -75 175 -37 c96
-20 176 -36 178 -34 2 2 -4 18 -14 37 -27 51 -23 148 16 376 31 184 33 209 23
269 -15 86 -49 150 -100 189 l-42 32 41 6 c91 15 159 72 207 176 63 137 78
331 33 433 -41 93 -146 167 -294 207 -72 19 -586 130 -604 130 -5 0 -87 -365
-182 -812z m568 491 c101 -23 166 -54 194 -93 27 -36 29 -166 3 -241 -40 -116
-109 -155 -238 -134 -128 20 -199 40 -199 55 0 8 20 110 45 226 25 116 45 213
45 216 0 4 30 -2 150 -29z"/>
<path d="M15655 30006 c-376 -88 -480 -115 -479 -127 1 -8 13 -68 28 -132 18
-78 32 -117 41 -117 7 0 84 16 170 36 86 20 159 33 162 30 4 -3 76 -306 160
-673 85 -368 156 -669 157 -671 4 -3 267 57 287 66 13 6 -5 94 -138 667 -84
363 -153 667 -153 676 0 12 37 24 168 54 92 21 169 39 170 41 2 1 -6 45 -18
96 -37 161 -39 168 -58 167 -9 0 -233 -51 -497 -113z"/>
<path d="M14771 29770 c-73 -22 -135 -41 -137 -43 -5 -5 447 -1580 456 -1590
6 -7 285 64 295 75 2 2 -341 1206 -439 1541 -9 31 -22 57 -29 56 -7 0 -72 -18
-146 -39z"/>
<path d="M24226 29783 c-31 -98 -446 -1559 -446 -1569 0 -7 8 -15 18 -18 9 -2
73 -21 141 -41 68 -20 127 -33 131 -28 11 11 462 1585 456 1591 -6 5 -268 81
-283 82 -6 0 -14 -8 -17 -17z"/>
<path d="M24645 28824 c-236 -399 -430 -730 -430 -736 0 -6 66 -32 146 -58
l146 -47 99 180 c54 99 104 182 111 184 10 4 318 -91 331 -102 1 -1 -9 -96
-22 -211 -14 -114 -24 -209 -22 -211 5 -6 310 -102 313 -99 6 5 153 1651 151
1675 -3 22 -19 30 -173 81 -93 31 -181 59 -195 63 -24 5 -44 -27 -455 -719z
m485 14 c-24 -183 -43 -334 -44 -335 -1 -1 -55 15 -121 36 -84 27 -119 43
-117 52 5 22 316 589 320 584 2 -2 -15 -154 -38 -337z"/>
<path d="M13915 29514 c-169 -36 -317 -141 -372 -261 -68 -147 -25 -377 94
-504 63 -69 173 -120 413 -195 210 -65 272 -89 316 -127 70 -59 101 -195 60
-263 -25 -41 -87 -80 -150 -95 -103 -23 -157 29 -216 207 -18 52 -37 94 -44
94 -13 0 -276 -87 -283 -93 -8 -9 51 -176 83 -236 47 -86 88 -134 148 -175
100 -68 214 -82 366 -46 376 90 516 368 355 708 -68 144 -170 219 -385 285
-63 20 -167 51 -230 71 -133 41 -216 87 -244 135 -28 48 -28 130 0 168 46 64
166 93 235 57 36 -18 82 -88 105 -158 9 -28 18 -52 19 -54 3 -3 178 51 273 83
16 6 -36 149 -79 216 -46 72 -130 144 -197 169 -74 28 -178 34 -267 14z"/>
<path d="M12805 29003 c-64 -14 -150 -48 -407 -161 l-286 -126 12 -31 c7 -16
152 -340 321 -720 169 -379 316 -709 326 -732 l18 -42 132 60 c73 32 135 61
137 64 3 2 -62 153 -143 335 -81 182 -146 332 -144 334 11 8 179 76 214 85 56
15 121 14 155 -4 45 -23 71 -65 173 -276 111 -231 150 -293 178 -284 10 4 87
37 170 74 l150 68 -43 26 c-58 34 -89 80 -197 293 -128 256 -200 329 -332 341
l-60 6 35 36 c47 49 66 98 66 175 0 182 -137 414 -276 466 -52 19 -145 25
-199 13z m51 -292 c45 -27 80 -77 109 -154 42 -111 32 -178 -35 -235 -23 -21
-241 -123 -252 -120 -11 4 -188 394 -188 414 0 6 33 26 73 44 156 71 237 85
293 51z"/>
<path d="M26562 28528 c-99 -194 -268 -527 -376 -740 l-197 -387 135 -68 c74
-37 137 -65 139 -63 2 3 54 104 116 225 l112 220 85 53 c48 29 88 51 90 49 3
-2 -5 -150 -16 -327 -11 -178 -20 -344 -20 -369 l0 -46 146 -73 c81 -40 148
-71 150 -69 4 4 44 909 44 1007 l0 55 340 208 c187 115 340 213 340 217 0 5
-66 42 -148 83 l-147 75 -320 -219 c-175 -120 -320 -217 -322 -216 -1 2 12 32
31 68 18 35 88 171 154 302 l120 238 -129 64 c-71 36 -133 65 -138 65 -5 0
-90 -159 -189 -352z"/>
<path d="M11378 28334 l-367 -205 19 -32 c10 -18 190 -342 400 -722 210 -379
385 -693 388 -696 11 -10 757 410 754 424 -3 9 -118 223 -127 235 -1 1 -111
-59 -245 -133 -133 -74 -244 -135 -245 -135 -2 0 -47 80 -101 178 -53 97 -104
187 -111 198 -13 21 -6 26 203 140 119 66 218 124 221 130 5 14 -109 223 -122
224 -5 0 -107 -54 -225 -119 -118 -66 -216 -119 -217 -118 -4 5 -183 327 -183
331 0 2 104 61 230 131 127 70 233 131 236 136 7 12 -118 239 -131 238 -5 -1
-175 -93 -377 -205z"/>
<path d="M27792 28288 c-59 -98 -551 -995 -583 -1063 -67 -143 -86 -273 -54
-364 38 -110 149 -212 320 -296 130 -64 195 -79 301 -73 134 8 226 64 307 186
67 101 638 1132 632 1142 -9 15 -248 141 -259 137 -6 -3 -132 -224 -280 -492
-277 -501 -329 -589 -375 -638 -62 -67 -138 -76 -233 -25 -98 52 -128 114
-103 210 19 76 34 104 341 658 145 262 266 483 269 491 4 11 -28 34 -124 87
-71 40 -132 72 -134 72 -3 0 -14 -15 -25 -32z"/>
<path d="M19350 28054 c-238 -51 -524 -199 -870 -451 -222 -161 -372 -284
-1144 -937 -719 -608 -1197 -948 -1668 -1187 l-157 -79 -73 24 c-137 46 -229
59 -377 53 -163 -6 -260 -31 -421 -108 -201 -97 -396 -242 -617 -461 l-122
-121 -128 122 c-260 246 -403 325 -583 323 -237 -2 -474 -190 -984 -782 -126
-146 -249 -286 -274 -312 l-46 -48 -79 0 c-357 0 -896 -319 -1410 -833 l-138
-139 -71 12 c-303 51 -904 -173 -1518 -568 -116 -75 -329 -226 -424 -302 l-79
-62 -146 46 c-537 169 -1220 288 -1936 336 -433 29 -1399 30 -1452 2 -29 -16
-43 -43 -43 -82 0 -40 35 -75 91 -90 448 -118 1027 -353 1415 -575 793 -455
1337 -1077 1633 -1868 28 -75 51 -140 51 -145 0 -5 -60 10 -133 33 -525 170
-1037 178 -1500 24 -241 -80 -567 -262 -762 -426 -72 -60 -84 -85 -71 -139 10
-40 45 -52 212 -73 1008 -128 1728 -574 2233 -1382 81 -131 83 -137 34 -106
-474 299 -1048 235 -1691 -190 -123 -82 -142 -102 -142 -149 0 -48 35 -74 177
-129 171 -66 489 -225 643 -322 718 -451 1162 -1058 1425 -1949 133 -451 204
-866 315 -1849 72 -633 97 -833 146 -1125 62 -375 140 -706 230 -976 182 -547
483 -1057 791 -1343 854 -788 1982 -1015 3618 -725 592 104 1170 254 2430 629
1231 366 1709 488 2235 569 455 70 866 82 1154 33 l70 -12 -96 -32 c-477 -157
-823 -543 -930 -1036 -32 -146 -32 -408 0 -554 38 -174 111 -348 202 -483 22
-33 38 -60 34 -60 -3 0 -86 32 -183 71 -1523 616 -2692 808 -3866 638 -283
-41 -530 -92 -1145 -238 -487 -115 -773 -170 -1080 -205 -548 -64 -1105 -41
-1687 69 -142 27 -168 25 -197 -17 -33 -46 -22 -75 102 -268 228 -358 435
-623 691 -884 610 -620 1252 -932 2083 -1011 l67 -6 67 -127 c376 -715 868
-1187 1393 -1337 204 -58 467 -76 681 -46 398 56 821 237 1323 567 86 57 157
101 157 98 0 -3 -11 -44 -25 -92 -54 -188 -70 -434 -40 -617 63 -393 315 -681
711 -813 302 -101 720 -109 1143 -22 230 47 372 90 404 121 53 53 31 105 -70
160 -109 60 -219 145 -300 233 -458 491 -423 1268 79 1756 190 184 473 342
734 409 l75 19 87 -23 c306 -82 621 -276 805 -494 120 -143 198 -279 252 -446
102 -312 82 -638 -59 -930 -110 -228 -274 -399 -507 -529 -72 -39 -95 -73 -83
-120 3 -14 17 -35 30 -45 51 -40 432 -128 684 -157 198 -22 500 -16 653 15
274 55 462 148 630 310 130 126 216 275 264 460 51 193 41 497 -22 716 -14 47
-25 87 -25 90 0 2 71 -42 158 -99 749 -493 1353 -666 1903 -546 581 126 1087
593 1514 1397 l49 92 66 6 c684 65 1223 282 1755 709 129 104 368 337 508 496
182 208 434 556 590 816 44 73 48 120 15 151 -38 33 -55 34 -192 8 -882 -167
-1600 -138 -2636 105 -91 21 -280 66 -420 99 -965 227 -1567 278 -2305 195
-719 -80 -1593 -322 -2454 -678 -74 -31 -139 -56 -143 -56 -5 0 2 15 15 33 87
117 173 313 215 490 23 100 26 132 26 297 0 165 -3 197 -26 297 -117 498 -468
875 -951 1025 l-72 22 75 12 c524 86 1253 -5 2278 -282 292 -78 480 -133 1107
-319 1091 -324 1503 -436 2030 -550 1098 -237 1972 -263 2687 -80 109 28 338
106 447 151 411 173 827 474 1067 773 424 528 680 1168 833 2087 53 318 78
508 146 1114 77 692 121 1005 185 1337 236 1210 711 1973 1560 2506 148 93
495 266 665 332 129 50 155 70 155 119 0 47 -19 67 -143 149 -441 294 -857
418 -1217 362 -171 -26 -325 -81 -461 -165 -27 -16 -49 -27 -49 -24 0 11 70
123 144 234 437 647 1059 1059 1842 1219 82 17 223 40 314 51 175 22 208 34
220 81 12 44 -5 73 -75 132 -194 164 -521 346 -762 426 -463 154 -973 146
-1501 -24 l-134 -43 7 26 c20 79 121 320 202 483 353 708 935 1256 1772 1668
327 161 789 335 1120 421 77 20 112 82 81 140 -21 40 -46 43 -355 51 -843 19
-1655 -41 -2325 -172 -270 -53 -704 -165 -830 -213 -10 -4 -67 33 -155 99
-443 335 -923 599 -1335 735 -192 64 -288 82 -441 84 l-127 1 -150 146 c-513
502 -1039 809 -1383 809 l-48 0 -138 158 c-76 87 -210 241 -298 342 -436 501
-662 670 -895 670 -187 0 -328 -81 -602 -349 l-128 -123 -137 132 c-306 295
-555 458 -808 532 -91 26 -299 36 -399 18 -39 -7 -110 -25 -157 -41 l-86 -29
-94 44 c-217 102 -496 267 -759 449 -312 215 -603 444 -1175 922 -468 391
-598 497 -780 637 -470 362 -810 548 -1102 604 -94 18 -297 17 -383 -2z m67
-1641 c-2 -2 -244 -2 -537 -1 l-533 3 534 263 534 262 3 -261 c1 -144 1 -264
-1 -266z m1401 -63 l1190 -585 -476 -5 c-263 -3 -485 -9 -495 -14 -45 -22 -47
-43 -47 -446 0 -429 0 -431 68 -449 23 -7 205 -11 485 -11 l447 0 0 -230 0
-230 -471 0 -471 0 -29 -29 -29 -29 0 -550 0 -550 26 -31 26 -31 451 -2 452
-3 5 -232 c4 -206 7 -234 23 -250 16 -16 51 -18 405 -23 l387 -5 5 -252 c5
-246 6 -253 28 -275 l23 -23 474 -3 475 -3 0 -554 0 -555 -690 0 -691 0 -24
-25 -25 -24 0 -495 0 -494 31 -26 31 -26 434 0 434 0 0 -493 0 -494 26 -24 26
-24 544 -3 544 -2 0 -724 c0 -800 5 -736 -63 -736 -18 0 -104 -11 -192 -25
-491 -77 -892 -237 -1169 -466 -135 -111 -153 -141 -125 -202 16 -36 39 -45
156 -62 445 -66 820 -199 1115 -395 452 -300 708 -744 794 -1375 25 -183 25
-617 0 -845 -19 -173 -28 -211 -41 -169 -14 44 -105 198 -167 281 -254 345
-639 590 -1142 727 -186 51 -225 52 -260 10 -14 -17 -26 -41 -26 -53 0 -13 35
-71 80 -132 141 -193 226 -357 273 -524 18 -64 21 -102 21 -255 0 -168 -2
-191 -37 -355 -20 -96 -39 -209 -43 -250 -12 -135 21 -268 97 -397 46 -76 190
-221 324 -324 175 -134 283 -287 350 -494 77 -239 74 -542 -10 -792 -149 -446
-490 -731 -955 -799 -137 -20 -212 -16 -375 21 -387 87 -676 244 -835 453
-154 202 -230 509 -202 809 29 317 147 496 577 878 191 169 272 254 335 350
71 110 85 164 84 325 -2 323 -96 572 -414 1105 -246 412 -339 619 -376 835
-20 116 -14 260 16 375 41 163 166 371 323 543 59 63 67 77 67 111 0 31 -6 44
-30 64 -25 21 -45 26 -127 34 -145 12 -454 9 -567 -6 -714 -94 -1227 -539
-1407 -1220 -57 -218 -81 -521 -60 -761 31 -358 97 -628 252 -1031 128 -337
167 -501 176 -755 15 -387 -93 -709 -314 -945 -94 -99 -168 -157 -276 -214
-157 -83 -331 -125 -524 -125 l-103 0 0 7801 c0 4386 4 7799 9 7797 4 -1 544
-266 1199 -588z m-2278 -445 l0 -325 -250 0 -250 0 0 63 c0 55 -3 67 -26 88
l-26 24 -482 5 -483 5 471 232 471 232 288 0 287 1 0 -325z m880 0 l0 -325
-355 0 -355 0 0 325 0 325 355 0 355 0 0 -325z m-340 -830 l0 -325 -580 0
-580 0 0 50 0 50 35 0 c25 0 44 8 60 25 l25 24 0 244 c0 134 3 247 7 250 3 4
237 7 520 7 l513 0 0 -325z m340 0 l0 -325 -80 0 -80 0 0 325 0 325 80 0 80 0
0 -325z m-1680 -275 l0 -50 -350 0 -350 0 0 43 c0 24 3 47 7 50 3 4 161 7 350
7 l343 0 0 -50z m-420 -325 l0 -95 -140 0 -140 0 0 95 0 95 140 0 140 0 0 -95z
m1200 -230 l0 -325 -240 0 -240 0 0 205 0 206 -26 24 -27 25 -243 0 -244 0 0
95 0 95 510 0 510 0 0 -325z m900 0 l0 -325 -360 0 -360 0 0 325 0 325 360 0
360 0 0 -325z m-340 -830 l0 -325 -580 0 -580 0 0 35 c0 33 2 35 34 35 21 0
42 9 60 25 l26 24 0 259 c0 142 3 262 7 265 3 4 237 7 520 7 l513 0 0 -325z
m340 0 l0 -325 -80 0 -80 0 0 325 0 325 80 0 80 0 0 -325z m-1680 -290 l0 -35
-325 0 -325 0 0 35 0 35 325 0 325 0 0 -35z m-422 -547 l-3 -323 -522 -3 -523
-2 0 200 0 200 384 0 384 0 26 31 c24 28 26 38 26 125 l0 94 115 0 115 0 -2
-322z m1202 -3 l0 -325 -510 0 -510 0 0 325 0 325 510 0 510 0 0 -325z m900 0
l0 -325 -360 0 -360 0 0 325 0 325 360 0 360 0 0 -325z m-3810 -830 l0 -325
-170 0 -170 0 0 325 0 325 170 0 170 0 0 -325z m928 3 l-3 -323 -372 -3 -373
-2 0 325 0 325 375 0 375 0 -2 -322z m1202 -3 l0 -325 -512 2 -513 3 -3 323
-2 322 515 0 515 0 0 -325z m1340 0 l0 -325 -580 0 -580 0 0 325 0 325 580 0
580 0 0 -325z m340 0 l0 -325 -80 0 -80 0 0 325 0 325 80 0 80 0 0 -325z
m-3290 -635 l0 -130 -430 0 -430 0 0 130 0 130 430 0 430 0 0 -130z m1190
-195 l0 -325 -310 0 -310 0 0 164 c0 162 0 165 -26 195 l-26 31 -169 0 -169 0
0 130 0 130 505 0 505 0 0 -325z m1200 0 l0 -325 -510 0 -510 0 0 325 0 325
510 0 510 0 0 -325z m900 0 l0 -325 -360 0 -360 0 0 325 0 325 360 0 360 0 0
-325z m-1680 -830 l0 -325 -515 0 -515 0 0 325 0 325 515 0 515 0 0 -325z
m1340 0 l0 -325 -580 0 -580 0 0 325 0 325 580 0 580 0 0 -325z m340 0 l0
-325 -80 0 -80 0 0 325 0 325 80 0 80 0 0 -325z m-2880 -260 l0 -65 -385 0
-385 0 0 65 0 65 385 0 385 0 0 -65z m-410 -570 l0 -325 -180 0 -180 0 0 325
0 325 180 0 180 0 0 -325z m1190 0 l0 -325 -505 0 -505 0 0 325 0 325 505 0
505 0 0 -325z m1200 0 l0 -325 -510 0 -510 0 0 325 0 325 510 0 510 0 0 -325z
m900 0 l0 -325 -360 0 -360 0 0 325 0 325 360 0 360 0 0 -325z m-3950 -830 l0
-325 -425 0 -425 0 0 325 0 325 425 0 425 0 0 -325z m1070 0 l0 -325 -445 0
-445 0 0 325 0 325 445 0 445 0 0 -325z m1200 0 l0 -325 -515 0 -515 0 0 325
0 325 515 0 515 0 0 -325z m1340 0 l0 -325 -580 0 -580 0 0 325 0 325 580 0
580 0 0 -325z m340 0 l0 -325 -80 0 -80 0 0 325 0 325 80 0 80 0 0 -325z
m-4370 -796 l0 -291 -27 5 c-27 6 -269 41 -360 53 l-43 5 0 260 0 259 215 0
215 0 0 -291z m1080 -34 l0 -325 -406 0 c-266 0 -420 4 -450 11 l-44 11 0 314
0 314 450 0 450 0 0 -325z m1190 0 l0 -325 -505 0 -505 0 0 325 0 325 505 0
505 0 0 -325z m1200 0 l0 -325 -510 0 -510 0 0 325 0 325 510 0 510 0 0 -325z
m900 0 l0 -325 -360 0 -360 0 0 325 0 325 360 0 360 0 0 -325z m-2710 -830 l0
-325 -380 0 -381 0 3 93 3 92 94 16 c108 18 131 36 131 99 0 34 -8 45 -80 114
-66 63 -160 131 -306 223 -15 9 83 12 449 12 l467 1 0 -325z m1030 0 l0 -325
-425 0 -425 0 0 325 0 325 425 0 425 0 0 -325z m1340 0 l0 -325 -580 0 -580 0
0 325 0 325 580 0 580 0 0 -325z m340 0 l0 -325 -80 0 -80 0 0 325 0 325 80 0
80 0 0 -325z m-3640 -250 l0 -75 -247 0 c-145 0 -242 4 -233 9 48 28 413 138
463 140 15 1 17 -9 17 -74z m-730 -580 l0 -325 -360 0 -361 0 12 23 c110 204
285 406 480 551 l102 76 63 0 64 0 0 -325z m1080 0 l0 -325 -450 0 -450 0 0
325 0 325 450 0 450 0 0 -325z m390 244 c103 -116 179 -223 229 -317 41 -79
91 -211 91 -239 0 -10 -52 -13 -265 -13 l-265 0 0 325 0 325 69 0 70 0 71 -81z
m2000 -244 l0 -325 -60 0 -59 0 -44 68 c-145 224 -341 402 -579 527 l-103 55
423 0 422 0 0 -325z m900 0 l0 -325 -360 0 -360 0 0 325 0 325 360 0 360 0 0
-325z m-4992 -832 l2 -323 -165 0 c-151 0 -165 2 -165 18 0 38 41 277 60 354
23 91 67 233 82 261 8 15 21 17 96 15 l87 -3 3 -322z m1042 42 c0 -237 -2
-285 -14 -285 -8 0 -68 -18 -135 -40 l-121 -40 -295 0 -295 0 0 325 0 325 430
0 430 0 0 -285z m1068 -42 l2 -323 -400 0 -400 0 0 34 c0 40 -30 81 -65 90
l-25 6 0 260 0 260 443 -2 442 -3 3 -322z m322 267 c0 -111 -52 -304 -119
-443 l-29 -62 -1 276 c-1 152 2 279 6 282 3 4 37 7 75 7 l68 0 0 -60z m2220
-265 l0 -325 -219 0 -220 0 -6 48 c-34 265 -68 407 -140 585 -7 16 11 17 289
17 l296 0 0 -325z m340 0 l0 -325 -80 0 -80 0 0 325 0 325 80 0 80 0 0 -325z
m-5242 -833 l2 -323 -32 3 -33 3 -11 125 c-11 115 -18 339 -15 468 l1 53 43
-3 42 -3 3 -323z m631 321 c0 -5 -28 -26 -62 -48 -92 -59 -222 -170 -309 -265
l-78 -83 0 201 0 202 225 0 c124 0 225 -3 224 -7z m1321 -318 l0 -325 -385 0
c-369 0 -385 1 -385 19 0 39 30 189 51 251 28 89 91 220 145 307 l45 73 265 0
264 0 0 -325z m430 315 c0 -5 -49 -92 -108 -192 -60 -101 -116 -196 -125 -213
-15 -28 -16 -18 -17 193 l0 222 125 0 c75 0 125 -4 125 -10z m2180 -315 l0
-325 -85 0 c-47 0 -85 3 -85 8 0 4 9 54 20 112 26 141 50 348 50 441 0 42 3
79 7 82 3 4 26 7 50 7 l43 0 0 -325z m680 0 l0 -325 -250 0 -250 0 0 325 0
325 250 0 250 0 0 -325z m-3820 -840 l0 -325 -77 0 -78 0 0 138 c-1 118 -6
162 -38 319 -20 100 -37 184 -37 187 0 4 52 6 115 6 l115 0 0 -325z m526 309
c-16 -42 -46 -170 -56 -243 -12 -80 -9 -310 5 -363 l7 -28 -151 0 -151 0 0
325 0 325 176 0 c159 0 176 -2 170 -16z m2954 -309 l0 -325 -396 0 -396 0 7
28 c3 15 34 97 67 182 33 85 81 219 107 297 l46 142 283 1 282 0 0 -325z m340
0 l0 -325 -80 0 -80 0 0 325 0 325 80 0 80 0 0 -325z m-3260 -830 l0 -325
-385 0 -385 0 0 325 0 325 385 0 385 0 0 -325z m2420 0 l0 -325 -174 0 c-148
0 -175 2 -180 16 -3 8 -11 68 -17 132 -13 143 -3 329 27 475 l6 27 169 0 169
0 0 -325z m840 0 l0 -325 -330 0 -330 0 0 325 0 325 330 0 330 0 0 -325z
m-2647 -226 c43 -46 77 -87 77 -91 0 -5 -115 -8 -255 -8 l-255 0 0 251 0 250
178 -160 c98 -87 213 -197 255 -242z m-1563 126 l0 -225 -220 0 c-121 0 -220
4 -220 9 0 17 80 127 132 181 29 30 100 92 158 136 58 45 114 91 124 103 11
11 21 21 23 21 1 0 3 -101 3 -225z m-250 -730 l0 -326 -157 3 -157 3 -10 45
c-5 25 -9 117 -10 205 0 156 6 207 41 338 l16 57 138 0 139 0 0 -325z m750 0
l0 -325 -285 0 -285 0 0 325 0 325 285 0 285 0 0 -325z m970 0 l0 -325 -395 0
-395 0 0 325 0 325 395 0 395 0 0 -325z m309 286 c43 -83 63 -180 68 -332 3
-80 2 -176 -1 -213 l-8 -66 -94 0 -94 0 0 325 0 325 55 0 c53 0 55 -1 74 -39z
m2081 -286 l0 -325 -121 0 c-116 0 -124 1 -179 31 -83 44 -210 148 -271 221
-93 112 -192 283 -214 371 l-7 27 396 0 396 0 0 -325z m350 0 l0 -325 -85 0
-85 0 0 325 0 325 85 0 85 0 0 -325z m-4180 -825 c0 -187 -4 -320 -9 -320 -5
0 -45 23 -88 52 -100 66 -235 201 -303 302 -51 76 -140 251 -140 275 0 8 75
11 270 11 l270 0 0 -320z m870 -5 l0 -325 -345 0 -345 0 0 325 0 325 345 0
345 0 0 -325z m876 261 c-32 -85 -50 -118 -109 -203 -56 -83 -157 -182 -247
-243 -103 -70 -253 -140 -299 -140 l-41 0 0 325 0 325 360 0 360 0 -24 -64z"/>
<path d="M10642 27878 c-73 -46 -132 -85 -132 -88 0 -3 112 -277 250 -609 137
-333 248 -606 246 -608 -2 -2 -203 214 -447 481 -244 266 -447 485 -451 485
-4 1 -51 -27 -105 -61 -54 -33 -115 -72 -137 -85 l-38 -25 93 -96 c52 -53 322
-327 600 -609 l506 -511 159 99 c87 55 165 104 173 108 11 7 -43 163 -273 790
-158 430 -289 788 -293 796 -3 8 -8 15 -12 15 -4 0 -66 -37 -139 -82z"/>
<path d="M28598 26874 c-260 -373 -473 -680 -473 -683 1 -15 459 -325 543
-368 82 -42 103 -48 167 -51 87 -5 126 6 218 60 92 54 202 165 328 333 324
432 409 628 353 815 -27 91 -86 164 -204 255 -73 55 -446 315 -453 315 -3 0
-218 -304 -479 -676z m688 234 c131 -92 151 -125 141 -225 -10 -100 -118 -289
-312 -548 -128 -171 -252 -275 -326 -275 -35 0 -112 40 -201 102 l-77 54 336
482 c193 276 341 478 347 474 6 -3 48 -32 92 -64z"/>
<path d="M9454 27077 c-49 -40 -102 -82 -117 -94 l-28 -22 502 -643 c276 -354
507 -649 514 -656 9 -10 36 6 130 80 65 51 118 97 118 101 -1 12 -1015 1307
-1022 1307 -3 -1 -47 -33 -97 -73z"/>
<path d="M8898 26657 c-58 -51 -106 -95 -105 -99 1 -4 160 -187 354 -406 193
-219 364 -414 380 -432 l28 -34 -45 26 c-25 14 -269 148 -543 297 l-499 271
-119 -102 c-65 -57 -118 -106 -116 -110 4 -14 1080 -1248 1087 -1248 5 0 56
41 114 92 93 80 105 93 93 107 -24 28 -699 795 -726 825 l-26 29 25 -13 c14
-7 252 -135 530 -286 278 -150 512 -276 521 -279 12 -4 52 24 133 95 l116 102
-17 23 c-31 42 -1068 1234 -1073 1234 -3 0 -53 -41 -112 -92z"/>
<path d="M29872 26212 c-440 -507 -459 -530 -508 -627 -89 -181 -62 -312 101
-484 82 -86 165 -148 261 -193 64 -31 76 -33 174 -33 94 0 111 3 160 27 30 15
77 46 103 69 27 23 227 247 444 498 218 251 406 467 419 481 l24 26 -112 97
c-61 53 -115 97 -119 97 -5 0 -186 -204 -403 -454 -451 -518 -491 -556 -577
-556 -108 0 -236 144 -210 236 26 91 34 101 501 638 195 224 357 412 358 417
4 10 -13 26 -154 147 l-72 62 -390 -448z"/>
<path d="M7794 25678 c-50 -51 -96 -100 -102 -109 -10 -14 47 -73 395 -409
225 -216 432 -420 461 -452 119 -135 123 -219 15 -319 -87 -82 -149 -87 -250
-20 -32 22 -254 228 -493 460 l-435 420 -107 -107 c-60 -59 -108 -110 -108
-113 0 -4 201 -201 448 -439 550 -531 610 -576 778 -575 62 1 82 6 150 40 65
32 98 57 189 149 120 121 163 187 191 297 30 117 6 226 -74 332 -35 47 -948
937 -961 937 -4 0 -47 -42 -97 -92z"/>
<path d="M31237 25526 c-32 -13 -77 -37 -98 -52 -62 -43 -150 -143 -178 -204
-24 -51 -26 -65 -26 -195 1 -103 8 -184 28 -307 45 -277 35 -355 -56 -433 -77
-66 -152 -70 -229 -12 -84 64 -109 137 -72 210 9 18 54 70 99 117 l83 85 -109
114 -108 115 -84 -85 c-212 -215 -243 -403 -101 -612 64 -94 172 -190 264
-235 71 -35 80 -37 175 -37 97 0 104 1 180 39 109 54 218 162 270 269 34 69
39 87 43 175 4 81 -2 133 -33 312 -54 314 -45 400 48 455 80 46 156 27 216
-55 60 -82 46 -154 -50 -255 l-51 -54 50 -58 c28 -32 73 -80 100 -106 48 -47
50 -48 73 -33 32 21 100 101 137 162 110 179 73 375 -102 549 -114 113 -186
148 -316 152 -83 3 -102 1 -153 -21z"/>
</g>
</svg>
